<svg xmlns="http://www.w3.org/2000/svg" width="600" height="300"><g><line x1="257.6470588235294" y1="128.8235294117647" x2="60" y2="157.05882352941177" stroke="#00000055" stroke-width="2"/><line x1="257.6470588235294" y1="128.8235294117647" x2="229.41176470588235" y2="58.23529411764706" stroke="#00000055" stroke-width="2"/><line x1="257.6470588235294" y1="128.8235294117647" x2="342.3529411764706" y2="199.41176470588235" stroke="#00000055" stroke-width="2"/><line x1="257.6470588235294" y1="128.8235294117647" x2="172.94117647058823" y2="213.52941176470588" stroke="#00000055" stroke-width="2"/><line x1="257.6470588235294" y1="128.8235294117647" x2="483.52941176470586" y2="241.76470588235293" stroke="#00000055" stroke-width="2"/><line x1="257.6470588235294" y1="128.8235294117647" x2="511.7647058823529" y2="100.58823529411765" stroke="#00000055" stroke-width="4"/><line x1="257.6470588235294" y1="128.8235294117647" x2="398.8235294117647" y2="227.6470588235294" stroke="#00000055" stroke-width="2"/><line x1="257.6470588235294" y1="128.8235294117647" x2="427.05882352941177" y2="255.88235294117646" stroke="#00000055" stroke-width="2"/><line x1="257.6470588235294" y1="128.8235294117647" x2="285.88235294117646" y2="72.35294117647058" stroke="#00000055" stroke-width="4"/><line x1="60" y1="157.05882352941177" x2="229.41176470588235" y2="58.23529411764706" stroke="#00000055" stroke-width="4"/><line x1="60" y1="157.05882352941177" x2="342.3529411764706" y2="199.41176470588235" stroke="#00000055" stroke-width="6"/><line x1="60" y1="157.05882352941177" x2="172.94117647058823" y2="213.52941176470588" stroke="#00000055" stroke-width="2"/><line x1="60" y1="157.05882352941177" x2="483.52941176470586" y2="241.76470588235293" stroke="#00000055" stroke-width="4"/><line x1="60" y1="157.05882352941177" x2="511.7647058823529" y2="100.58823529411765" stroke="#00000055" stroke-width="2"/><line x1="60" y1="157.05882352941177" x2="398.8235294117647" y2="227.6470588235294" stroke="#00000055" stroke-width="2"/><line x1="60" y1="157.05882352941177" x2="285.88235294117646" y2="72.35294117647058" stroke="#00000055" stroke-width="2"/><line x1="229.41176470588235" y1="58.23529411764706" x2="342.3529411764706" y2="199.41176470588235" stroke="#00000055" stroke-width="4"/><line x1="229.41176470588235" y1="58.23529411764706" x2="172.94117647058823" y2="213.52941176470588" stroke="#00000055" stroke-width="2"/><line x1="229.41176470588235" y1="58.23529411764706" x2="483.52941176470586" y2="241.76470588235293" stroke="#00000055" stroke-width="2"/><line x1="229.41176470588235" y1="58.23529411764706" x2="511.7647058823529" y2="100.58823529411765" stroke="#00000055" stroke-width="2"/><line x1="229.41176470588235" y1="58.23529411764706" x2="398.8235294117647" y2="227.6470588235294" stroke="#00000055" stroke-width="6"/><line x1="229.41176470588235" y1="58.23529411764706" x2="427.05882352941177" y2="255.88235294117646" stroke="#00000055" stroke-width="2"/><line x1="229.41176470588235" y1="58.23529411764706" x2="144.70588235294116" y2="44.11764705882353" stroke="#00000055" stroke-width="2"/><line x1="342.3529411764706" y1="199.41176470588235" x2="172.94117647058823" y2="213.52941176470588" stroke="#00000055" stroke-width="2"/><line x1="342.3529411764706" y1="199.41176470588235" x2="483.52941176470586" y2="241.76470588235293" stroke="#00000055" stroke-width="4"/><line x1="342.3529411764706" y1="199.41176470588235" x2="511.7647058823529" y2="100.58823529411765" stroke="#00000055" stroke-width="4"/><line x1="342.3529411764706" y1="199.41176470588235" x2="398.8235294117647" y2="227.6470588235294" stroke="#00000055" stroke-width="2"/><line x1="342.3529411764706" y1="199.41176470588235" x2="427.05882352941177" y2="255.88235294117646" stroke="#00000055" stroke-width="2"/><line x1="342.3529411764706" y1="199.41176470588235" x2="314.11764705882354" y2="30" stroke="#00000055" stroke-width="2"/><line x1="342.3529411764706" y1="199.41176470588235" x2="201.1764705882353" y2="185.29411764705884" stroke="#00000055" stroke-width="2"/><line x1="342.3529411764706" y1="199.41176470588235" x2="370.5882352941177" y2="171.1764705882353" stroke="#00000055" stroke-width="2"/><line x1="172.94117647058823" y1="213.52941176470588" x2="483.52941176470586" y2="241.76470588235293" stroke="#00000055" stroke-width="2"/><line x1="172.94117647058823" y1="213.52941176470588" x2="511.7647058823529" y2="100.58823529411765" stroke="#00000055" stroke-width="4"/><line x1="172.94117647058823" y1="213.52941176470588" x2="398.8235294117647" y2="227.6470588235294" stroke="#00000055" stroke-width="2"/><line x1="172.94117647058823" y1="213.52941176470588" x2="455.2941176470588" y2="142.94117647058823" stroke="#00000055" stroke-width="2"/><line x1="483.52941176470586" y1="241.76470588235293" x2="511.7647058823529" y2="100.58823529411765" stroke="#00000055" stroke-width="2"/><line x1="483.52941176470586" y1="241.76470588235293" x2="398.8235294117647" y2="227.6470588235294" stroke="#00000055" stroke-width="2"/><line x1="483.52941176470586" y1="241.76470588235293" x2="370.5882352941177" y2="171.1764705882353" stroke="#00000055" stroke-width="2"/><line x1="511.7647058823529" y1="100.58823529411765" x2="398.8235294117647" y2="227.6470588235294" stroke="#00000055" stroke-width="2"/><line x1="511.7647058823529" y1="100.58823529411765" x2="455.2941176470588" y2="142.94117647058823" stroke="#00000055" stroke-width="2"/><line x1="511.7647058823529" y1="100.58823529411765" x2="285.88235294117646" y2="72.35294117647058" stroke="#00000055" stroke-width="2"/><line x1="511.7647058823529" y1="100.58823529411765" x2="370.5882352941177" y2="171.1764705882353" stroke="#00000055" stroke-width="2"/><line x1="398.8235294117647" y1="227.6470588235294" x2="427.05882352941177" y2="255.88235294117646" stroke="#00000055" stroke-width="4"/><line x1="455.2941176470588" y1="142.94117647058823" x2="88.23529411764706" y2="114.70588235294117" stroke="#00000055" stroke-width="2"/><line x1="455.2941176470588" y1="142.94117647058823" x2="144.70588235294116" y2="44.11764705882353" stroke="#00000055" stroke-width="2"/><line x1="455.2941176470588" y1="142.94117647058823" x2="201.1764705882353" y2="185.29411764705884" stroke="#00000055" stroke-width="2"/><line x1="455.2941176470588" y1="142.94117647058823" x2="116.47058823529412" y2="86.47058823529412" stroke="#00000055" stroke-width="2"/><line x1="88.23529411764706" y1="114.70588235294117" x2="144.70588235294116" y2="44.11764705882353" stroke="#00000055" stroke-width="6"/><line x1="88.23529411764706" y1="114.70588235294117" x2="314.11764705882354" y2="30" stroke="#00000055" stroke-width="2"/><line x1="88.23529411764706" y1="114.70588235294117" x2="285.88235294117646" y2="72.35294117647058" stroke="#00000055" stroke-width="4"/><line x1="88.23529411764706" y1="114.70588235294117" x2="116.47058823529412" y2="86.47058823529412" stroke="#00000055" stroke-width="6"/><line x1="144.70588235294116" y1="44.11764705882353" x2="314.11764705882354" y2="30" stroke="#00000055" stroke-width="2"/><line x1="144.70588235294116" y1="44.11764705882353" x2="116.47058823529412" y2="86.47058823529412" stroke="#00000055" stroke-width="4"/><line x1="314.11764705882354" y1="30" x2="116.47058823529412" y2="86.47058823529412" stroke="#00000055" stroke-width="2"/><line x1="285.88235294117646" y1="72.35294117647058" x2="116.47058823529412" y2="86.47058823529412" stroke="#00000055" stroke-width="6"/></g><g><text x="317.6470588235294" y="120.8235294117647" text-anchor="middle" alignment-baseline="hanging" fill="#000000">Bo Huang</text><text x="145" y="149.05882352941177" text-anchor="middle" alignment-baseline="hanging" fill="#000000">Qianyuan Wang</text><text x="279.4117647058823" y="50.23529411764706" text-anchor="middle" alignment-baseline="hanging" fill="#000000">Hao Ou</text><text x="402.3529411764706" y="191.41176470588235" text-anchor="middle" alignment-baseline="hanging" fill="#000000">Yi Zhang</text><text x="232.94117647058823" y="205.52941176470588" text-anchor="middle" alignment-baseline="hanging" fill="#000000">Suxi Ren</text><text x="558.5294117647059" y="233.76470588235293" text-anchor="middle" alignment-baseline="hanging" fill="#000000">Dongyu Zhou</text><text x="566.7647058823529" y="92.58823529411765" text-anchor="middle" alignment-baseline="hanging" fill="#000000">Jing Wu</text><text x="458.8235294117647" y="219.6470588235294" text-anchor="middle" alignment-baseline="hanging" fill="#000000">Jiang Du</text><text x="520.2941176470588" y="134.94117647058823" text-anchor="middle" alignment-baseline="hanging" fill="#000000">Chao Deng</text><text x="143.23529411764707" y="106.70588235294117" text-anchor="middle" alignment-baseline="hanging" fill="#000000">Yu Tian</text><text x="487.05882352941177" y="247.88235294117646" text-anchor="middle" alignment-baseline="hanging" fill="#000000">Zhuo Tan</text><text x="209.70588235294116" y="36.11764705882353" text-anchor="middle" alignment-baseline="hanging" fill="#000000">Shan Qiao</text><text x="369.11764705882354" y="22" text-anchor="middle" alignment-baseline="hanging" fill="#000000">Wei Fan</text><text x="296.1764705882353" y="177.29411764705884" text-anchor="middle" alignment-baseline="hanging" fill="#000000">Shih-Chieh King</text><text x="350.88235294117646" y="64.35294117647058" text-anchor="middle" alignment-baseline="hanging" fill="#000000">Teng Shen</text><text x="440.5882352941177" y="163.1764705882353" text-anchor="middle" alignment-baseline="hanging" fill="#000000">Boran Jing</text><text x="166.47058823529412" y="78.47058823529412" text-anchor="middle" alignment-baseline="hanging" fill="#000000">Lun Ai</text></g><g><rect x="237.6470588235294" y="120.8235294117647" height="16" width="40" fill="#ffffff" stroke="#555555" stroke-width="1"/><rect x="40" y="149.05882352941177" height="16" width="40" fill="#ffffff" stroke="#555555" stroke-width="1"/><rect x="209.41176470588235" y="50.23529411764706" height="16" width="40" fill="#ffffff" stroke="#555555" stroke-width="1"/><rect x="322.3529411764706" y="191.41176470588235" height="16" width="40" fill="#ffffff" stroke="#555555" stroke-width="1"/><rect x="152.94117647058823" y="205.52941176470588" height="16" width="40" fill="#ffffff" stroke="#555555" stroke-width="1"/><rect x="463.52941176470586" y="233.76470588235293" height="16" width="40" fill="#ffffff" stroke="#555555" stroke-width="1"/><rect x="491.7647058823529" y="92.58823529411765" height="16" width="40" fill="#ffffff" stroke="#555555" stroke-width="1"/><rect x="378.8235294117647" y="219.6470588235294" height="16" width="40" fill="#ffffff" stroke="#555555" stroke-width="1"/><rect x="435.2941176470588" y="134.94117647058823" height="16" width="40" fill="#ffffff" stroke="#555555" stroke-width="1"/><rect x="68.23529411764706" y="106.70588235294117" height="16" width="40" fill="#ffffff" stroke="#555555" stroke-width="1"/><rect x="407.05882352941177" y="247.88235294117646" height="16" width="40" fill="#ffffff" stroke="#555555" stroke-width="1"/><rect x="124.70588235294116" y="36.11764705882353" height="16" width="40" fill="#ffffff" stroke="#555555" stroke-width="1"/><rect x="294.11764705882354" y="22" height="16" width="40" fill="#ffffff" stroke="#555555" stroke-width="1"/><rect x="181.1764705882353" y="177.29411764705884" height="16" width="40" fill="#ffffff" stroke="#555555" stroke-width="1"/><rect x="265.88235294117646" y="64.35294117647058" height="16" width="40" fill="#ffffff" stroke="#555555" stroke-width="1"/><rect x="350.5882352941177" y="163.1764705882353" height="16" width="40" fill="#ffffff" stroke="#555555" stroke-width="1"/><rect x="96.47058823529412" y="78.47058823529412" height="16" width="40" fill="#ffffff" stroke="#555555" stroke-width="1"/></g><g><g transform="translate(257.6470588235294, 128.8235294117647)"><line x1="-12" y1="-4" x2="-6" y2="-2" stroke="red" fill="transparent" stroke-width="1.5" stroke-linejoin="round" stroke-linecap="round"/><line x1="-6" y1="-2" x2="0" y2="-2" stroke="red" fill="transparent" stroke-width="1.5" stroke-linejoin="round" stroke-linecap="round"/><line x1="0" y1="-2" x2="6" y2="2" stroke="red" fill="transparent" stroke-width="1.5" stroke-linejoin="round" stroke-linecap="round"/><line x1="6" y1="2" x2="12" y2="-2" stroke="red" fill="transparent" stroke-width="1.5" stroke-linejoin="round" stroke-linecap="round"/></g><g transform="translate(60, 157.05882352941177)"><line x1="-12" y1="-2" x2="-6" y2="0" stroke="red" fill="transparent" stroke-width="1.5" stroke-linejoin="round" stroke-linecap="round"/><line x1="-6" y1="0" x2="0" y2="-2" stroke="red" fill="transparent" stroke-width="1.5" stroke-linejoin="round" stroke-linecap="round"/><line x1="0" y1="-2" x2="6" y2="-2" stroke="red" fill="transparent" stroke-width="1.5" stroke-linejoin="round" stroke-linecap="round"/><line x1="6" y1="-2" x2="12" y2="-2" stroke="red" fill="transparent" stroke-width="1.5" stroke-linejoin="round" stroke-linecap="round"/></g><g transform="translate(229.41176470588235, 58.23529411764706)"><line x1="-12" y1="-4" x2="-6" y2="0" stroke="red" fill="transparent" stroke-width="1.5" stroke-linejoin="round" stroke-linecap="round"/><line x1="-6" y1="0" x2="0" y2="-4" stroke="red" fill="transparent" stroke-width="1.5" stroke-linejoin="round" stroke-linecap="round"/><line x1="0" y1="-4" x2="6" y2="2" stroke="red" fill="transparent" stroke-width="1.5" stroke-linejoin="round" stroke-linecap="round"/><line x1="6" y1="2" x2="12" y2="-2" stroke="red" fill="transparent" stroke-width="1.5" stroke-linejoin="round" stroke-linecap="round"/></g><g transform="translate(342.3529411764706, 199.41176470588235)"><line x1="-12" y1="2" x2="-6" y2="-2" stroke="red" fill="transparent" stroke-width="1.5" stroke-linejoin="round" stroke-linecap="round"/><line x1="-6" y1="-2" x2="0" y2="-4" stroke="red" fill="transparent" stroke-width="1.5" stroke-linejoin="round" stroke-linecap="round"/><line x1="0" y1="-4" x2="6" y2="0" stroke="red" fill="transparent" stroke-width="1.5" stroke-linejoin="round" stroke-linecap="round"/><line x1="6" y1="0" x2="12" y2="-2" stroke="red" fill="transparent" stroke-width="1.5" stroke-linejoin="round" stroke-linecap="round"/></g><g transform="translate(172.94117647058823, 213.52941176470588)"><line x1="-12" y1="0" x2="-6" y2="-4" stroke="red" fill="transparent" stroke-width="1.5" stroke-linejoin="round" stroke-linecap="round"/><line x1="-6" y1="-4" x2="0" y2="-2" stroke="red" fill="transparent" stroke-width="1.5" stroke-linejoin="round" stroke-linecap="round"/><line x1="0" y1="-2" x2="6" y2="2" stroke="red" fill="transparent" stroke-width="1.5" stroke-linejoin="round" stroke-linecap="round"/><line x1="6" y1="2" x2="12" y2="-4" stroke="red" fill="transparent" stroke-width="1.5" stroke-linejoin="round" stroke-linecap="round"/></g><g transform="translate(483.52941176470586, 241.76470588235293)"><line x1="-12" y1="2" x2="-6" y2="-2" stroke="red" fill="transparent" stroke-width="1.5" stroke-linejoin="round" stroke-linecap="round"/><line x1="-6" y1="-2" x2="0" y2="0" stroke="red" fill="transparent" stroke-width="1.5" stroke-linejoin="round" stroke-linecap="round"/><line x1="0" y1="0" x2="6" y2="0" stroke="red" fill="transparent" stroke-width="1.5" stroke-linejoin="round" stroke-linecap="round"/><line x1="6" y1="0" x2="12" y2="-4" stroke="red" fill="transparent" stroke-width="1.5" stroke-linejoin="round" stroke-linecap="round"/></g><g transform="translate(511.7647058823529, 100.58823529411765)"><line x1="-12" y1="-4" x2="-6" y2="-2" stroke="red" fill="transparent" stroke-width="1.5" stroke-linejoin="round" stroke-linecap="round"/><line x1="-6" y1="-2" x2="0" y2="-4" stroke="red" fill="transparent" stroke-width="1.5" stroke-linejoin="round" stroke-linecap="round"/><line x1="0" y1="-4" x2="6" y2="4" stroke="red" fill="transparent" stroke-width="1.5" stroke-linejoin="round" stroke-linecap="round"/><line x1="6" y1="4" x2="12" y2="-2" stroke="red" fill="transparent" stroke-width="1.5" stroke-linejoin="round" stroke-linecap="round"/></g><g transform="translate(398.8235294117647, 227.6470588235294)"><line x1="-12" y1="-2" x2="-6" y2="-4" stroke="red" fill="transparent" stroke-width="1.5" stroke-linejoin="round" stroke-linecap="round"/><line x1="-6" y1="-4" x2="0" y2="-2" stroke="red" fill="transparent" stroke-width="1.5" stroke-linejoin="round" stroke-linecap="round"/><line x1="0" y1="-2" x2="6" y2="4" stroke="red" fill="transparent" stroke-width="1.5" stroke-linejoin="round" stroke-linecap="round"/><line x1="6" y1="4" x2="12" y2="-4" stroke="red" fill="transparent" stroke-width="1.5" stroke-linejoin="round" stroke-linecap="round"/></g><g transform="translate(455.2941176470588, 142.94117647058823)"><line x1="-12" y1="2" x2="-6" y2="0" stroke="red" fill="transparent" stroke-width="1.5" stroke-linejoin="round" stroke-linecap="round"/><line x1="-6" y1="0" x2="0" y2="-4" stroke="red" fill="transparent" stroke-width="1.5" stroke-linejoin="round" stroke-linecap="round"/><line x1="0" y1="-4" x2="6" y2="-2" stroke="red" fill="transparent" stroke-width="1.5" stroke-linejoin="round" stroke-linecap="round"/><line x1="6" y1="-2" x2="12" y2="-4" stroke="red" fill="transparent" stroke-width="1.5" stroke-linejoin="round" stroke-linecap="round"/></g><g transform="translate(88.23529411764706, 114.70588235294117)"><line x1="-12" y1="-2" x2="-6" y2="-2" stroke="red" fill="transparent" stroke-width="1.5" stroke-linejoin="round" stroke-linecap="round"/><line x1="-6" y1="-2" x2="0" y2="-2" stroke="red" fill="transparent" stroke-width="1.5" stroke-linejoin="round" stroke-linecap="round"/><line x1="0" y1="-2" x2="6" y2="2" stroke="red" fill="transparent" stroke-width="1.5" stroke-linejoin="round" stroke-linecap="round"/><line x1="6" y1="2" x2="12" y2="-2" stroke="red" fill="transparent" stroke-width="1.5" stroke-linejoin="round" stroke-linecap="round"/></g><g transform="translate(427.05882352941177, 255.88235294117646)"><line x1="-12" y1="-2" x2="-6" y2="-2" stroke="red" fill="transparent" stroke-width="1.5" stroke-linejoin="round" stroke-linecap="round"/><line x1="-6" y1="-2" x2="0" y2="0" stroke="red" fill="transparent" stroke-width="1.5" stroke-linejoin="round" stroke-linecap="round"/><line x1="0" y1="0" x2="6" y2="2" stroke="red" fill="transparent" stroke-width="1.5" stroke-linejoin="round" stroke-linecap="round"/><line x1="6" y1="2" x2="12" y2="-4" stroke="red" fill="transparent" stroke-width="1.5" stroke-linejoin="round" stroke-linecap="round"/></g><g transform="translate(144.70588235294116, 44.11764705882353)"><line x1="-12" y1="-2" x2="-6" y2="0" stroke="red" fill="transparent" stroke-width="1.5" stroke-linejoin="round" stroke-linecap="round"/><line x1="-6" y1="0" x2="0" y2="-2" stroke="red" fill="transparent" stroke-width="1.5" stroke-linejoin="round" stroke-linecap="round"/><line x1="0" y1="-2" x2="6" y2="0" stroke="red" fill="transparent" stroke-width="1.5" stroke-linejoin="round" stroke-linecap="round"/><line x1="6" y1="0" x2="12" y2="-4" stroke="red" fill="transparent" stroke-width="1.5" stroke-linejoin="round" stroke-linecap="round"/></g><g transform="translate(314.11764705882354, 30)"><line x1="-12" y1="2" x2="-6" y2="-2" stroke="red" fill="transparent" stroke-width="1.5" stroke-linejoin="round" stroke-linecap="round"/><line x1="-6" y1="-2" x2="0" y2="-2" stroke="red" fill="transparent" stroke-width="1.5" stroke-linejoin="round" stroke-linecap="round"/><line x1="0" y1="-2" x2="6" y2="-2" stroke="red" fill="transparent" stroke-width="1.5" stroke-linejoin="round" stroke-linecap="round"/><line x1="6" y1="-2" x2="12" y2="-4" stroke="red" fill="transparent" stroke-width="1.5" stroke-linejoin="round" stroke-linecap="round"/></g><g transform="translate(201.1764705882353, 185.29411764705884)"><line x1="-12" y1="-2" x2="-6" y2="4" stroke="red" fill="transparent" stroke-width="1.5" stroke-linejoin="round" stroke-linecap="round"/><line x1="-6" y1="4" x2="0" y2="-4" stroke="red" fill="transparent" stroke-width="1.5" stroke-linejoin="round" stroke-linecap="round"/><line x1="0" y1="-4" x2="6" y2="-2" stroke="red" fill="transparent" stroke-width="1.5" stroke-linejoin="round" stroke-linecap="round"/><line x1="6" y1="-2" x2="12" y2="-4" stroke="red" fill="transparent" stroke-width="1.5" stroke-linejoin="round" stroke-linecap="round"/></g><g transform="translate(285.88235294117646, 72.35294117647058)"><line x1="-12" y1="-4" x2="-6" y2="-2" stroke="red" fill="transparent" stroke-width="1.5" stroke-linejoin="round" stroke-linecap="round"/><line x1="-6" y1="-2" x2="0" y2="2" stroke="red" fill="transparent" stroke-width="1.5" stroke-linejoin="round" stroke-linecap="round"/><line x1="0" y1="2" x2="6" y2="0" stroke="red" fill="transparent" stroke-width="1.5" stroke-linejoin="round" stroke-linecap="round"/><line x1="6" y1="0" x2="12" y2="-2" stroke="red" fill="transparent" stroke-width="1.5" stroke-linejoin="round" stroke-linecap="round"/></g><g transform="translate(370.5882352941177, 171.1764705882353)"><line x1="-12" y1="0" x2="-6" y2="-4" stroke="red" fill="transparent" stroke-width="1.5" stroke-linejoin="round" stroke-linecap="round"/><line x1="-6" y1="-4" x2="0" y2="2" stroke="red" fill="transparent" stroke-width="1.5" stroke-linejoin="round" stroke-linecap="round"/><line x1="0" y1="2" x2="6" y2="-2" stroke="red" fill="transparent" stroke-width="1.5" stroke-linejoin="round" stroke-linecap="round"/><line x1="6" y1="-2" x2="12" y2="-4" stroke="red" fill="transparent" stroke-width="1.5" stroke-linejoin="round" stroke-linecap="round"/></g><g transform="translate(116.47058823529412, 86.47058823529412)"><line x1="-12" y1="-2" x2="-6" y2="0" stroke="red" fill="transparent" stroke-width="1.5" stroke-linejoin="round" stroke-linecap="round"/><line x1="-6" y1="0" x2="0" y2="2" stroke="red" fill="transparent" stroke-width="1.5" stroke-linejoin="round" stroke-linecap="round"/><line x1="0" y1="2" x2="6" y2="-4" stroke="red" fill="transparent" stroke-width="1.5" stroke-linejoin="round" stroke-linecap="round"/><line x1="6" y1="-4" x2="12" y2="-4" stroke="red" fill="transparent" stroke-width="1.5" stroke-linejoin="round" stroke-linecap="round"/></g></g></svg>